# Nexo.GeoTerrain OBJ
g terrain
mtllib world.mtl
usemtl building_residential
v -5.56599998 31.9909992 -5.56599998
v 5.56599998 31.9909992 -5.56599998
v 5.56599998 31.9889984 5.56599998
v -5.56599998 31.9889984 5.56599998
v -5.56599998 19.9909992 -5.56599998
v 5.56599998 19.9909992 -5.56599998
v 5.56599998 31.9909992 -5.56599998
v -5.56599998 31.9909992 -5.56599998
v 5.56599998 19.9909992 -5.56599998
v 5.56599998 19.9889984 5.56599998
v 5.56599998 31.9889984 5.56599998
v 5.56599998 31.9909992 -5.56599998
v 5.56599998 19.9889984 5.56599998
v -5.56599998 19.9889984 5.56599998
v -5.56599998 31.9889984 5.56599998
v 5.56599998 31.9889984 5.56599998
v -5.56599998 19.9889984 5.56599998
v -5.56599998 19.9909992 -5.56599998
v -5.56599998 31.9909992 -5.56599998
v -5.56599998 31.9889984 5.56599998
vt -5.56599998 -5.56599998
vt 5.56599998 -5.56599998
vt 5.56599998 5.56599998
vt -5.56599998 5.56599998
vt 0 0
vt 11.132 0
vt 11.132 12
vt 0 12
vt 11.132 0
vt 22.2639999 0
vt 22.2639999 12
vt 11.132 12
vt 22.2639999 0
vt 33.3959999 0
vt 33.3959999 12
vt 22.2639999 12
vt 33.3959999 0
vt 44.5279999 0
vt 44.5279999 12
vt 33.3959999 12
vn 0 -0.999999881 -0.000179734867
vn 0 -0.999999881 -0.000179734867
vn 0 -0.999999881 -0.000179734867
vn 0 -0.999999881 -0.000179734867
vn 0 0 -1
vn 0 0 -1
vn 0 0 -1
vn 0 0 -1
vn 1 0 0
vn 1 0 0
vn 1 0 0
vn 1 0 0
vn 0 0 1
vn 0 0 1
vn 0 0 1
vn 0 0 1
vn -1 0 0
vn -1 0 0
vn -1 0 0
vn -1 0 0
f 4/4/4 1/1/1 2/2/2
f 2/2/2 3/3/3 4/4/4
f 5/5/5 8/8/8 7/7/7
f 5/5/5 7/7/7 6/6/6
f 9/9/9 12/12/12 11/11/11
f 9/9/9 11/11/11 10/10/10
f 13/13/13 16/16/16 15/15/15
f 13/13/13 15/15/15 14/14/14
f 17/17/17 20/20/20 19/19/19
f 17/17/17 19/19/19 18/18/18

